
nColumns=19
nRows=54
DataType=double
version=3
OpenSimVersion=4.4-2022-10-11-798caa840
endheader
time	ground_force_calcn_r_vx	ground_force_calcn_r_vy	ground_force_calcn_r_vz	ground_force_calcn_r_px	ground_force_calcn_r_py	ground_force_calcn_r_pz	ground_force_calcn_r_mx	ground_force_calcn_r_my	ground_force_calcn_r_mz	ground_force_calcn_l_vx	ground_force_calcn_l_vy	ground_force_calcn_l_vz	ground_force_calcn_l_px	ground_force_calcn_l_py	ground_force_calcn_l_pz	ground_force_calcn_l_mx	ground_force_calcn_l_my	ground_force_calcn_l_mz
0	3.66369	396.638	-38.1756	-0.208305	0	-0.448434	-0.008201780000000001	-0.887941	0.0854625	-2.86211	353.224	42.1261	-0.190165	0	-0.829695	-0.0136417	1.68357	0.200785
0.01	3.55189	395.801	-38.1052	-0.208188	0	-0.448259	-0.0079074	-0.881155	0.084832	-2.92191	354.349	42.3205	-0.190054	0	-0.829694	-0.0138203	1.67602	0.20017
0.02	3.42158	394.68	-38.0088	-0.208043	0	-0.448078	-0.00758609	-0.875059	0.0842707	-2.98106	355.771	42.5907	-0.189911	0	-0.829723	-0.0139622	1.6663	0.199479
0.03	3.27209	393.236	-37.8815	-0.207869	0	-0.447895	-0.00723823	-0.86988	0.083798	-3.03715	357.523	42.9489	-0.189731	0	-0.8297870000000001	-0.0140517	1.65411	0.198707
0.04	3.10293	391.431	-37.718	-0.207664	0	-0.447714	-0.00686231	-0.865672	0.0834154	-3.08849	359.637	43.4072	-0.189508	0	-0.829889	-0.0140756	1.63902	0.197825
0.05	2.91429	389.232	-37.5131	-0.207427	0	-0.447536	-0.00645695	-0.86239	0.0831146	-3.13447	362.148	43.9776	-0.189241	0	-0.83003	-0.0140252	1.62043	0.196778
0.06	2.70717	386.608	-37.2614	-0.207163	0	-0.447364	-0.00602128	-0.859893	0.0828767	-3.17589	365.082	44.6709	-0.188925	0	-0.830215	-0.0138979	1.59762	0.195482
0.07000000000000001	2.48401	383.531	-36.9575	-0.206873	0	-0.4472	-0.00555663	-0.857944	0.08267239999999999	-3.21478	368.461	45.4956	-0.188558	0	-0.830443	-0.013697	1.56987	0.193839
0.08	2.24974	379.986	-36.5965	-0.206566	0	-0.447047	-0.0050698	-0.856299	0.0824704	-3.25416	372.294	46.457	-0.188138	0	-0.830714	-0.0134302	1.53649	0.191732
0.09	2.012	375.968	-36.1746	-0.206248	0	-0.446909	-0.00457429	-0.8547630000000001	0.08224289999999999	-3.29807	376.578	47.5563	-0.187661	0	-0.83103	-0.0131098	1.49689	0.189036
0.1	1.78088	371.49	-35.6895	-0.205933	0	-0.446792	-0.00409001	-0.853171	0.0819652	-3.35132	381.286	48.7894	-0.187126	0	-0.831387	-0.0127497	1.45056	0.185614
0.11	1.56825	366.58	-35.142	-0.20564	0	-0.446699	-0.00364194	-0.851309	0.08161019999999999	-3.4189	386.374	50.1462	-0.186529	0	-0.831781	-0.0123634	1.3972	0.181338
0.12	1.38712	361.283	-34.5348	-0.205389	0	-0.446639	-0.00325911	-0.848853	0.0811414	-3.50558	391.777	51.6114	-0.185869	0	-0.832207	-0.0119622	1.33687	0.176115
0.13	1.25058	355.651	-33.8718	-0.2052	0	-0.446618	-0.00297266	-0.845394	0.0805144	-3.61531	397.418	53.1648	-0.185146	0	-0.832661	-0.0115534	1.27002	0.169898
0.14	1.17027	349.748	-33.1573	-0.205097	0	-0.446647	-0.00281275	-0.840619	0.07969370000000001	-3.75029	403.211	54.7825	-0.184364	0	-0.833132	-0.0111379	1.19749	0.162697
0.15	1.15541	343.64	-32.3964	-0.205104	0	-0.446731	-0.00280536	-0.834364	0.0786589	-3.91053	409.067	56.4388	-0.183529	0	-0.833615	-0.0107111	1.12045	0.154589
0.16	1.21197	337.396	-31.5945	-0.205237	0	-0.446877	-0.00296915	-0.826572	0.077402	-4.09404	414.903	58.1091	-0.182652	0	-0.834104	-0.0102654	1.04033	0.145703
0.17	1.34205	331.083	-30.758	-0.205513	0	-0.447092	-0.00331252	-0.817195	0.0759185	-4.29726	420.643	59.7708	-0.181743	0	-0.834587	-0.00979344	0.9586440000000001	0.136217
0.18	1.54396	324.767	-29.8943	-0.205939	0	-0.447377	-0.00383257	-0.806168	0.0742067	-4.5154	426.22	61.404	-0.180819	0	-0.835062	-0.00929144	0.877041	0.126352
0.19	1.81228	318.512	-29.0118	-0.20652	0	-0.447732	-0.00451432	-0.7934	0.0722672	-4.74269	431.573	62.9912	-0.179891	0	-0.835519	-0.00876065	0.797198	0.116357
0.2	2.13865	312.377	-28.1195	-0.207252	0	-0.448153	-0.00533156	-0.77874	0.07010039999999999	-4.97264	436.651	64.5175	-0.178974	0	-0.835955	-0.008207849999999999	0.720738	0.106493
0.21	2.51241	306.414	-27.2268	-0.208125	0	-0.448636	-0.00624768	-0.761969	0.0677056	-5.19837	441.411	65.9693	-0.178084	0	-0.836363	-0.00764442	0.649114	0.0970106
0.22	2.92038	300.673	-26.3432	-0.209125	0	-0.449173	-0.00721448	-0.742778	0.06507789999999999	-5.41328	445.815	67.3351	-0.177231	0	-0.836739	-0.00708446	0.583446	0.0881226
0.23	3.3466	295.197	-25.4778	-0.210233	0	-0.44976	-0.008171589999999999	-0.720799	0.0622107	-5.61224	449.831	68.6053	-0.176426	0	-0.837078	-0.00654375	0.524493	0.0799923
0.24	3.7728	290.03	-24.64	-0.211425	0	-0.450385	-0.00904904	-0.695635	0.059099	-5.7929	453.432	69.7723	-0.175673	0	-0.837375	-0.00603833	0.472642	0.07272820000000001
0.25	4.17842	285.222	-23.8395	-0.212671	0	-0.451043	-0.00976846	-0.666803	0.0557328	-5.95621	456.591	70.82980000000001	-0.174976	0	-0.837628	-0.00558354	0.428023	0.0663981
0.26	4.54066	280.826	-23.0856	-0.213935	0	-0.451721	-0.0102499	-0.633924	0.0521124	-6.1061	459.287	71.77370000000001	-0.174334	0	-0.837835	-0.00519262	0.390578	0.0610364
0.27	4.83516	276.897	-22.3876	-0.215175	0	-0.452405	-0.0104222	-0.596853	0.0482566	-6.2487	461.503	72.6027	-0.17374	0	-0.837995	-0.00487523	0.360064	0.0566445
0.28	5.03777	273.481	-21.7535	-0.216345	0	-0.453081	-0.0102371	-0.555732	0.0442046	-6.39137	463.227	73.3186	-0.173187	0	-0.8381110000000001	-0.0046385	0.336185	0.0532106
0.29	5.12874	270.613	-21.1894	-0.2174	0	-0.453732	-0.00968566	-0.511054	0.0400163	-6.54183	464.453	73.92619999999999	-0.172662	0	-0.838187	-0.00448771	0.318616	0.0507135
0.3	5.09796	268.308	-20.6981	-0.218301	0	-0.454344	-0.008810770000000001	-0.463715	0.0357724	-6.70736	465.178	74.4325	-0.172149	0	-0.838228	-0.00442694	0.307023	0.0491263
0.31	4.94906	266.564	-20.2786	-0.219023	0	-0.454907	-0.00770459	-0.414981	0.0315694	-6.89454	465.396	74.8455	-0.171633	0	-0.838241	-0.00445957	0.301031	0.0484122
0.32	4.69909	265.362	-19.9263	-0.219562	0	-0.455412	-0.00648732	-0.366345	0.0275092	-7.10945	465.104	75.17230000000001	-0.171096	0	-0.838232	-0.00458978	0.300266	0.0485304
0.33	4.37391	264.678	-19.6347	-0.219921	0	-0.455856	-0.00527647	-0.319294	0.0236863	-7.35693	464.29	75.4183	-0.170521	0	-0.83821	-0.00482407	0.304443	0.0494531
0.34	4.00355	264.485	-19.3975	-0.220122	0	-0.456241	-0.0041657	-0.275197	0.0201831	-7.63947	462.936	75.586	-0.169891	0	-0.83818	-0.00517344	0.3135	0.0511868
0.35	3.6169	264.764	-19.2082	-0.220187	0	-0.456568	-0.00321257	-0.235166	0.017061	-7.95608	461.017	75.6739	-0.169193	0	-0.83815	-0.00565242	0.327531	0.0537628
0.36	3.23619	265.506	-19.0598	-0.220138	0	-0.45684	-0.00243655	-0.199901	0.0143503	-8.30194	458.499	75.6768	-0.168416	0	-0.838124	-0.00627905	0.346779	0.057237
0.37	2.87421	266.714	-18.945	-0.219997	0	-0.457063	-0.00182861	-0.169687	0.0120531	-8.66924	455.348	75.5859	-0.16755	0	-0.838106	-0.00707554	0.37164	0.0616907
0.38	2.5342	268.404	-18.8572	-0.219781	0	-0.457242	-0.00136377	-0.14444	0.0101479	-9.04912	451.528	75.3891	-0.166589	0	-0.838098	-0.00806668	0.402507	0.06720429999999999
0.39	2.21174	270.599	-18.7904	-0.219514	0	-0.457383	-0.00101211	-0.123829	0.008598679999999999	-9.432740000000001	447.007	75.07129999999999	-0.165528	0	-0.838102	-0.009276049999999999	0.439582	0.0738243
0.4	1.90022	273.334	-18.7391	-0.219223	0	-0.457497	-0.000747055	-0.107459	0.00736711	-9.81155	441.757	74.6148	-0.16436	0	-0.838122	-0.010724	0.482841	0.08155419999999999
0.41	1.59761	276.654	-18.699	-0.218949	0	-0.457598	-0.000547964	-0.0948893	0.00641355	-10.1778	435.752	74.00109999999999	-0.163082	0	-0.838155	-0.0124283	0.532108	0.0903645
0.42	1.30986	280.627	-18.6682	-0.218746	0	-0.457705	-0.000400116	-0.0857218	0.00570248	-10.5248	428.968	73.2101	-0.16169	0	-0.838205	-0.0144031	0.5870379999999999	0.100187
0.43	1.05168	285.337	-18.6475	-0.218669	0	-0.457836	-0.00029394	-0.0797503	0.00521189	-10.8468	421.371	72.2212	-0.160188	0	-0.838269	-0.0166566	0.647068	0.110905
0.44	0.845287	290.886	-18.6413	-0.218774	0	-0.458007	-0.000223998	-0.07708379999999999	0.00493988	-11.1379	412.916	71.0127	-0.158577	0	-0.838341	-0.0191884	0.711374	0.122341
0.45	0.7176630000000001	297.384	-18.6575	-0.219105	0	-0.458231	-0.000188499	-0.0781101	0.00490052	-11.391	403.548	69.56180000000001	-0.156868	0	-0.838418	-0.0219834	0.778805	0.134247
0.46	0.695694	304.934	-18.7076	-0.219687	0	-0.458509	-0.000190238	-0.08338470000000001	0.00511561	-11.5964	393.197	67.8454	-0.15507	0	-0.838493	-0.025006	0.847873	0.146299
0.47	0.8003670000000001	313.627	-18.8064	-0.220523	0	-0.458839	-0.000238587	-0.0934912	0.00560614	-11.7423	381.781	65.8419	-0.153198	0	-0.838554	-0.0281967	0.916766	0.158105
0.48	1.04366	323.53	-18.9707	-0.221594	0	-0.459207	-0.000351298	-0.1089	0.00638557	-11.8148	369.209	63.5327	-0.151267	0	-0.838591	-0.0314725	0.983504	0.16924
0.49	1.42946	334.68	-19.218	-0.222862	0	-0.459596	-0.000555309	-0.130015	0.00746571	-11.7975	355.382	60.9033	-0.149293	0	-0.838595	-0.034726	1.04607	0.179268
0.5	1.95494	347.074	-19.5665	-0.224279	0	-0.459983	-0.000885374	-0.157186	0.0088615	-11.6745	340.21	57.9463	-0.147291	0	-0.838552	-0.0378243	1.10225	0.187741
0.51	2.61065	360.658	-20.0351	-0.225792	0	-0.460347	-0.00137919	-0.190533	0.0105844	-11.4344	323.62	54.6656	-0.145266	0	-0.838453	-0.0406194	1.14962	0.194193
0.52	3.38091	375.329	-20.641	-0.227348	0	-0.460667	-0.00207061	-0.229866	0.0126414	-11.0754	305.585	51.0783	-0.143218	0	-0.838286	-0.0429784	1.18583	0.198211
0.53	4.24736	390.939	-21.3971	-0.228903	0	-0.460926	-0.00298314	-0.274577	0.0150283	-10.6071	286.155	47.2168	-0.141135	0	-0.838041	-0.0448135	1.20897	0.199485
